<svg viewBox="0 0 800 600" xmlns="http://www.w3.org/2000/svg">
  <!-- Hintergrund - Moderne Event Location -->
  <rect width="800" height="600" fill="#f5f5f5"/>
  <rect width="800" height="300" fill="#2C5530" opacity="0.1"/>
  
  <!-- Stehtische -->
  <ellipse cx="150" cy="400" rx="50" ry="20" fill="#ffffff" stroke="#D4AF37" stroke-width="2"/>
  <rect x="145" y="400" width="10" height="100" fill="#333"/>
  
  <ellipse cx="650" cy="400" rx="50" ry="20" fill="#ffffff" stroke="#D4AF37" stroke-width="2"/>
  <rect x="645" y="400" width="10" height="100" fill="#333"/>
  
  <!-- Flying Service Tablett in der Mitte -->
  <ellipse cx="400" cy="320" rx="100" ry="40" fill="#C0C0C0"/>
  <ellipse cx="400" cy="315" rx="95" ry="35" fill="#E5E5E5"/>
  
  <!-- Fingerfood Arrangements -->
  <!-- Mini Bruschetta -->
  <rect x="350" y="300" width="25" height="15" fill="#8B4513" rx="3"/>
  <circle cx="362" cy="295" r="5" fill="#ff6347"/>
  <circle cx="358" cy="298" r="3" fill="#90EE90"/>
  
  <!-- Sushi Rolle -->
  <circle cx="390" cy="305" r="12" fill="#ffffff"/>
  <circle cx="390" cy="305" r="8" fill="#ff6347"/>
  <circle cx="390" cy="305" r="4" fill="#2C5530"/>
  
  <!-- Lachs-Blini -->
  <ellipse cx="420" cy="308" rx="15" ry="8" fill="#F5DEB3"/>
  <ellipse cx="420" cy="305" rx="10" ry="5" fill="#FFA07A"/>
  <circle cx="420" cy="302" r="2" fill="#ffffff"/>
  
  <!-- Mini Quiche -->
  <circle cx="450" cy="305" r="12" fill="#FFD700"/>
  <circle cx="450" cy="305" r="8" fill="#F0E68C"/>
  
  <!-- Garnelen-Spieß -->
  <rect x="365" y="320" width="70" height="2" fill="#8B4513"/>
  <ellipse cx="375" cy="319" rx="8" ry="5" fill="#FFB6C1"/>
  <ellipse cx="390" cy="319" rx="8" ry="5" fill="#FFB6C1"/>
  <ellipse cx="405" cy="319" rx="8" ry="5" fill="#FFB6C1"/>
  <ellipse cx="420" cy="319" rx="8" ry="5" fill="#FFB6C1"/>
  
  <!-- Kellner Silhouette -->
  <ellipse cx="250" cy="250" rx="20" ry="25" fill="#333"/>
  <rect x="235" y="270" width="30" height="60" fill="#333"/>
  <rect x="220" y="280" width="60" height="4" fill="#333"/>
  <ellipse cx="210" cy="280" rx="25" ry="10" fill="#C0C0C0"/>
  
  <!-- Gäste Silhouetten -->
  <ellipse cx="100" cy="350" rx="15" ry="20" fill="#666" opacity="0.6"/>
  <rect x="90" y="365" width="20" height="50" fill="#666" opacity="0.6"/>
  
  <ellipse cx="700" cy="350" rx="15" ry="20" fill="#666" opacity="0.6"/>
  <rect x="690" y="365" width="20" height="50" fill="#666" opacity="0.6"/>
  
  <!-- Champagner Gläser auf Stehtisch -->
  <ellipse cx="130" cy="380" rx="8" ry="3" fill="#F4E4C1" opacity="0.8"/>
  <rect x="129" y="380" width="2" height="15" fill="#e0e0e0"/>
  <ellipse cx="130" cy="395" rx="5" ry="2" fill="#e0e0e0"/>
  
  <ellipse cx="170" cy="380" rx="8" ry="3" fill="#F4E4C1" opacity="0.8"/>
  <rect x="169" y="380" width="2" height="15" fill="#e0e0e0"/>
  <ellipse cx="170" cy="395" rx="5" ry="2" fill="#e0e0e0"/>
  
  <!-- Text -->
  <text x="400" y="80" font-family="Playfair Display, serif" font-size="48" fill="#2C5530" text-anchor="middle">Flying Buffet</text>
  <text x="400" y="120" font-family="Open Sans, sans-serif" font-size="20" fill="#666" text-anchor="middle">Elegantes Fingerfood &amp; Live Service</text>
  
  <!-- Dekorative Elemente -->
  <circle cx="300" cy="150" r="3" fill="#D4AF37"/>
  <circle cx="400" cy="160" r="3" fill="#D4AF37"/>
  <circle cx="500" cy="150" r="3" fill="#D4AF37"/>
</svg>
