<svg viewBox="0 0 800 600" xmlns="http://www.w3.org/2000/svg">
  <!-- Hintergrund -->
  <rect width="800" height="600" fill="#1a1a1a"/>
  
  <!-- Eleganter Tisch mit weißem Tischtuch -->
  <rect x="50" y="400" width="700" height="150" fill="#ffffff" opacity="0.95"/>
  <rect x="50" y="395" width="700" height="10" fill="#D4AF37"/>
  
  <!-- Kerzenleuchter -->
  <rect x="150" y="320" width="8" height="80" fill="#D4AF37"/>
  <rect x="146" y="310" width="16" height="20" fill="#D4AF37"/>
  <ellipse cx="154" cy="305" rx="12" ry="20" fill="#ffcc00" opacity="0.8"/>
  
  <rect x="650" y="320" width="8" height="80" fill="#D4AF37"/>
  <rect x="646" y="310" width="16" height="20" fill="#D4AF37"/>
  <ellipse cx="654" cy="305" rx="12" ry="20" fill="#ffcc00" opacity="0.8"/>
  
  <!-- Hauptgericht - Teller mit Filet -->
  <ellipse cx="400" cy="380" rx="120" ry="40" fill="#f9f9f9"/>
  <ellipse cx="400" cy="380" rx="110" ry="35" fill="#ffffff"/>
  
  <!-- Rinderfilet -->
  <ellipse cx="380" cy="375" rx="45" ry="25" fill="#8B4513"/>
  <ellipse cx="380" cy="375" rx="40" ry="20" fill="#A0522D"/>
  <rect x="365" y="370" width="30" height="10" fill="#654321" opacity="0.6"/>
  
  <!-- Beilagen -->
  <circle cx="430" cy="380" r="20" fill="#90EE90"/>
  <circle cx="435" cy="375" r="15" fill="#228B22" opacity="0.7"/>
  
  <!-- Sauce -->
  <ellipse cx="380" cy="390" rx="35" ry="8" fill="#4a2c2a" opacity="0.8"/>
  
  <!-- Weingläser -->
  <ellipse cx="250" cy="350" rx="25" ry="8" fill="#722F37" opacity="0.6"/>
  <rect x="248" y="350" width="4" height="40" fill="#e0e0e0" opacity="0.5"/>
  <ellipse cx="250" cy="390" rx="12" ry="4" fill="#e0e0e0" opacity="0.5"/>
  
  <ellipse cx="550" cy="350" rx="25" ry="8" fill="#722F37" opacity="0.6"/>
  <rect x="548" y="350" width="4" height="40" fill="#e0e0e0" opacity="0.5"/>
  <ellipse cx="550" cy="390" rx="12" ry="4" fill="#e0e0e0" opacity="0.5"/>
  
  <!-- Blumenarrangement -->
  <ellipse cx="400" cy="300" rx="40" ry="15" fill="#2C5530"/>
  <circle cx="385" cy="280" r="12" fill="#ff6b9d"/>
  <circle cx="400" cy="275" r="12" fill="#feca57"/>
  <circle cx="415" cy="280" r="12" fill="#ff9ff3"/>
  <circle cx="390" cy="285" r="10" fill="#ee5a6f"/>
  <circle cx="410" cy="285" r="10" fill="#f368e0"/>
  
  <!-- Besteck -->
  <rect x="280" y="370" width="3" height="50" fill="#C0C0C0"/>
  <rect x="290" y="370" width="3" height="50" fill="#C0C0C0"/>
  <rect x="510" y="370" width="3" height="50" fill="#C0C0C0"/>
  <rect x="520" y="370" width="3" height="50" fill="#C0C0C0"/>
  
  <!-- Servietten -->
  <rect x="300" y="375" width="30" height="30" fill="#fff" opacity="0.9" transform="rotate(45 315 390)"/>
  <rect x="470" y="375" width="30" height="30" fill="#fff" opacity="0.9" transform="rotate(45 485 390)"/>
  
  <!-- Text -->
  <text x="400" y="100" font-family="Playfair Display, serif" font-size="48" fill="#D4AF37" text-anchor="middle">Gala Dinner</text>
  <text x="400" y="140" font-family="Open Sans, sans-serif" font-size="20" fill="#ffffff" text-anchor="middle">Exquisites 5-Gänge-Menü</text>
  
  <!-- Sterne Dekoration -->
  <text x="200" y="200" font-size="24" fill="#D4AF37">★</text>
  <text x="400" y="180" font-size="24" fill="#D4AF37">★</text>
  <text x="600" y="200" font-size="24" fill="#D4AF37">★</text>
</svg>
